<mxfile host="app.diagrams.net" modified="2022-02-05T15:31:29.122Z" agent="5.0 (Macintosh; Intel Mac OS X 10_15_7) AppleWebKit/537.36 (KHTML, like Gecko) Chrome/97.0.4692.99 Safari/537.36" etag="w3Af8VUJUtnRFJDP4qLU" version="16.2.6" type="github">
  <diagram id="C5RBs43oDa-KdzZeNtuy" name="Page-1">
    <mxGraphModel dx="1808" dy="496" grid="1" gridSize="10" guides="1" tooltips="1" connect="1" arrows="1" fold="1" page="1" pageScale="1" pageWidth="827" pageHeight="1169" math="0" shadow="0">
      <root>
        <mxCell id="WIyWlLk6GJQsqaUBKTNV-0" />
        <mxCell id="WIyWlLk6GJQsqaUBKTNV-1" parent="WIyWlLk6GJQsqaUBKTNV-0" />
        <mxCell id="2EqcD_uXoQMtrZzEr0Fk-52" value="" style="swimlane;horizontal=0;fillColor=#d5e8d4;strokeColor=#82b366;" vertex="1" parent="WIyWlLk6GJQsqaUBKTNV-1">
          <mxGeometry x="-489" y="189" width="710" height="145" as="geometry" />
        </mxCell>
        <mxCell id="2EqcD_uXoQMtrZzEr0Fk-53" value="2" style="ellipse;whiteSpace=wrap;html=1;aspect=fixed;strokeWidth=2;fontFamily=Tahoma;spacingBottom=4;spacingRight=2;strokeColor=#d3d3d3;" vertex="1" parent="2EqcD_uXoQMtrZzEr0Fk-52">
          <mxGeometry x="2" y="20" width="20" height="20" as="geometry" />
        </mxCell>
        <mxCell id="2EqcD_uXoQMtrZzEr0Fk-50" value="" style="swimlane;horizontal=0;fillColor=#d5e8d4;strokeColor=#82b366;" vertex="1" parent="WIyWlLk6GJQsqaUBKTNV-1">
          <mxGeometry x="271.5" y="189" width="70" height="145" as="geometry" />
        </mxCell>
        <mxCell id="2EqcD_uXoQMtrZzEr0Fk-45" value="3" style="ellipse;whiteSpace=wrap;html=1;aspect=fixed;strokeWidth=2;fontFamily=Tahoma;spacingBottom=4;spacingRight=2;strokeColor=#d3d3d3;" vertex="1" parent="2EqcD_uXoQMtrZzEr0Fk-50">
          <mxGeometry x="2" y="19" width="20" height="20" as="geometry" />
        </mxCell>
        <mxCell id="2EqcD_uXoQMtrZzEr0Fk-73" style="edgeStyle=orthogonalEdgeStyle;rounded=0;orthogonalLoop=1;jettySize=auto;html=1;exitX=1;exitY=0.5;exitDx=0;exitDy=0;endArrow=block;endFill=0;" edge="1" parent="WIyWlLk6GJQsqaUBKTNV-1" source="2EqcD_uXoQMtrZzEr0Fk-48">
          <mxGeometry relative="1" as="geometry">
            <mxPoint x="280" y="100" as="targetPoint" />
          </mxGeometry>
        </mxCell>
        <mxCell id="2EqcD_uXoQMtrZzEr0Fk-48" value="" style="swimlane;horizontal=0;fillColor=#f8cecc;strokeColor=#b85450;" vertex="1" parent="WIyWlLk6GJQsqaUBKTNV-1">
          <mxGeometry x="-490" y="30" width="710" height="140" as="geometry" />
        </mxCell>
        <mxCell id="2EqcD_uXoQMtrZzEr0Fk-42" value="1" style="ellipse;whiteSpace=wrap;html=1;aspect=fixed;strokeWidth=2;fontFamily=Tahoma;spacingBottom=4;spacingRight=2;strokeColor=#d3d3d3;" vertex="1" parent="2EqcD_uXoQMtrZzEr0Fk-48">
          <mxGeometry x="2" y="20" width="20" height="20" as="geometry" />
        </mxCell>
        <mxCell id="WIyWlLk6GJQsqaUBKTNV-7" value="Ready to NB assessment" style="rounded=1;whiteSpace=wrap;html=1;fontSize=12;glass=0;strokeWidth=1;shadow=0;fillColor=#fff2cc;strokeColor=#d6b656;" parent="WIyWlLk6GJQsqaUBKTNV-1" vertex="1">
          <mxGeometry x="-70" y="85" width="120" height="40" as="geometry" />
        </mxCell>
        <mxCell id="2EqcD_uXoQMtrZzEr0Fk-0" value="Product Backlog" style="swimlane;fontStyle=0;childLayout=stackLayout;horizontal=1;startSize=30;horizontalStack=0;resizeParent=1;resizeParentMax=0;resizeLast=0;collapsible=1;marginBottom=0;" vertex="1" parent="WIyWlLk6GJQsqaUBKTNV-1">
          <mxGeometry x="-661" y="78" width="140" height="240" as="geometry">
            <mxRectangle x="20" y="180" width="120" height="30" as="alternateBounds" />
          </mxGeometry>
        </mxCell>
        <mxCell id="2EqcD_uXoQMtrZzEr0Fk-1" value="Feature 1" style="text;strokeColor=#b85450;fillColor=#f8cecc;align=left;verticalAlign=middle;spacingLeft=4;spacingRight=4;overflow=hidden;points=[[0,0.5],[1,0.5]];portConstraint=eastwest;rotatable=0;" vertex="1" parent="2EqcD_uXoQMtrZzEr0Fk-0">
          <mxGeometry y="30" width="140" height="30" as="geometry" />
        </mxCell>
        <mxCell id="2EqcD_uXoQMtrZzEr0Fk-2" value="Feature 2" style="text;strokeColor=#b85450;fillColor=#f8cecc;align=left;verticalAlign=middle;spacingLeft=4;spacingRight=4;overflow=hidden;points=[[0,0.5],[1,0.5]];portConstraint=eastwest;rotatable=0;" vertex="1" parent="2EqcD_uXoQMtrZzEr0Fk-0">
          <mxGeometry y="60" width="140" height="30" as="geometry" />
        </mxCell>
        <mxCell id="2EqcD_uXoQMtrZzEr0Fk-3" value="Feature 3" style="text;strokeColor=#82b366;fillColor=#d5e8d4;align=left;verticalAlign=middle;spacingLeft=4;spacingRight=4;overflow=hidden;points=[[0,0.5],[1,0.5]];portConstraint=eastwest;rotatable=0;" vertex="1" parent="2EqcD_uXoQMtrZzEr0Fk-0">
          <mxGeometry y="90" width="140" height="30" as="geometry" />
        </mxCell>
        <mxCell id="2EqcD_uXoQMtrZzEr0Fk-6" value="Feature 4" style="text;strokeColor=#82b366;fillColor=#d5e8d4;align=left;verticalAlign=middle;spacingLeft=4;spacingRight=4;overflow=hidden;points=[[0,0.5],[1,0.5]];portConstraint=eastwest;rotatable=0;" vertex="1" parent="2EqcD_uXoQMtrZzEr0Fk-0">
          <mxGeometry y="120" width="140" height="30" as="geometry" />
        </mxCell>
        <mxCell id="2EqcD_uXoQMtrZzEr0Fk-7" value="Feature 5" style="text;strokeColor=#b85450;fillColor=#f8cecc;align=left;verticalAlign=middle;spacingLeft=4;spacingRight=4;overflow=hidden;points=[[0,0.5],[1,0.5]];portConstraint=eastwest;rotatable=0;" vertex="1" parent="2EqcD_uXoQMtrZzEr0Fk-0">
          <mxGeometry y="150" width="140" height="30" as="geometry" />
        </mxCell>
        <mxCell id="2EqcD_uXoQMtrZzEr0Fk-8" value="Feature 6" style="text;strokeColor=#82b366;fillColor=#d5e8d4;align=left;verticalAlign=middle;spacingLeft=4;spacingRight=4;overflow=hidden;points=[[0,0.5],[1,0.5]];portConstraint=eastwest;rotatable=0;" vertex="1" parent="2EqcD_uXoQMtrZzEr0Fk-0">
          <mxGeometry y="180" width="140" height="30" as="geometry" />
        </mxCell>
        <mxCell id="2EqcD_uXoQMtrZzEr0Fk-18" value="Feature 7" style="text;strokeColor=#82b366;fillColor=#d5e8d4;align=left;verticalAlign=middle;spacingLeft=4;spacingRight=4;overflow=hidden;points=[[0,0.5],[1,0.5]];portConstraint=eastwest;rotatable=0;" vertex="1" parent="2EqcD_uXoQMtrZzEr0Fk-0">
          <mxGeometry y="210" width="140" height="30" as="geometry" />
        </mxCell>
        <mxCell id="2EqcD_uXoQMtrZzEr0Fk-10" value="Sprint Backlog&#xa;(needs NB approval)" style="swimlane;fontStyle=0;childLayout=stackLayout;horizontal=1;startSize=30;horizontalStack=0;resizeParent=1;resizeParentMax=0;resizeLast=0;collapsible=1;marginBottom=0;" vertex="1" parent="WIyWlLk6GJQsqaUBKTNV-1">
          <mxGeometry x="-439" y="40" width="140" height="120" as="geometry" />
        </mxCell>
        <mxCell id="2EqcD_uXoQMtrZzEr0Fk-11" value="Feature 1" style="text;strokeColor=#b85450;fillColor=#f8cecc;align=left;verticalAlign=middle;spacingLeft=4;spacingRight=4;overflow=hidden;points=[[0,0.5],[1,0.5]];portConstraint=eastwest;rotatable=0;" vertex="1" parent="2EqcD_uXoQMtrZzEr0Fk-10">
          <mxGeometry y="30" width="140" height="30" as="geometry" />
        </mxCell>
        <mxCell id="2EqcD_uXoQMtrZzEr0Fk-12" value="Feature 2" style="text;strokeColor=#b85450;fillColor=#f8cecc;align=left;verticalAlign=middle;spacingLeft=4;spacingRight=4;overflow=hidden;points=[[0,0.5],[1,0.5]];portConstraint=eastwest;rotatable=0;" vertex="1" parent="2EqcD_uXoQMtrZzEr0Fk-10">
          <mxGeometry y="60" width="140" height="30" as="geometry" />
        </mxCell>
        <mxCell id="2EqcD_uXoQMtrZzEr0Fk-13" value="Feature 3" style="text;strokeColor=#82b366;fillColor=#d5e8d4;align=left;verticalAlign=middle;spacingLeft=4;spacingRight=4;overflow=hidden;points=[[0,0.5],[1,0.5]];portConstraint=eastwest;rotatable=0;" vertex="1" parent="2EqcD_uXoQMtrZzEr0Fk-10">
          <mxGeometry y="90" width="140" height="30" as="geometry" />
        </mxCell>
        <mxCell id="2EqcD_uXoQMtrZzEr0Fk-14" value="Sprint Backlog&#xa;(no need for NB approval)" style="swimlane;fontStyle=0;childLayout=stackLayout;horizontal=1;startSize=30;horizontalStack=0;resizeParent=1;resizeParentMax=0;resizeLast=0;collapsible=1;marginBottom=0;" vertex="1" parent="WIyWlLk6GJQsqaUBKTNV-1">
          <mxGeometry x="-439" y="200" width="140" height="120" as="geometry" />
        </mxCell>
        <mxCell id="2EqcD_uXoQMtrZzEr0Fk-15" value="Feature 4" style="text;strokeColor=#82b366;fillColor=#d5e8d4;align=left;verticalAlign=middle;spacingLeft=4;spacingRight=4;overflow=hidden;points=[[0,0.5],[1,0.5]];portConstraint=eastwest;rotatable=0;" vertex="1" parent="2EqcD_uXoQMtrZzEr0Fk-14">
          <mxGeometry y="30" width="140" height="30" as="geometry" />
        </mxCell>
        <mxCell id="2EqcD_uXoQMtrZzEr0Fk-16" value="Feature 6" style="text;strokeColor=#82b366;fillColor=#d5e8d4;align=left;verticalAlign=middle;spacingLeft=4;spacingRight=4;overflow=hidden;points=[[0,0.5],[1,0.5]];portConstraint=eastwest;rotatable=0;" vertex="1" parent="2EqcD_uXoQMtrZzEr0Fk-14">
          <mxGeometry y="60" width="140" height="30" as="geometry" />
        </mxCell>
        <mxCell id="2EqcD_uXoQMtrZzEr0Fk-19" value="Feature 7" style="text;strokeColor=#82b366;fillColor=#d5e8d4;align=left;verticalAlign=middle;spacingLeft=4;spacingRight=4;overflow=hidden;points=[[0,0.5],[1,0.5]];portConstraint=eastwest;rotatable=0;" vertex="1" parent="2EqcD_uXoQMtrZzEr0Fk-14">
          <mxGeometry y="90" width="140" height="30" as="geometry" />
        </mxCell>
        <mxCell id="2EqcD_uXoQMtrZzEr0Fk-20" value="" style="endArrow=classic;html=1;rounded=0;entryX=0;entryY=0.5;entryDx=0;entryDy=0;exitX=1;exitY=0.5;exitDx=0;exitDy=0;" edge="1" parent="WIyWlLk6GJQsqaUBKTNV-1" source="2EqcD_uXoQMtrZzEr0Fk-1" target="2EqcD_uXoQMtrZzEr0Fk-11">
          <mxGeometry width="50" height="50" relative="1" as="geometry">
            <mxPoint x="-519" y="100" as="sourcePoint" />
            <mxPoint x="-469" y="100" as="targetPoint" />
          </mxGeometry>
        </mxCell>
        <mxCell id="2EqcD_uXoQMtrZzEr0Fk-21" value="" style="endArrow=classic;html=1;rounded=0;entryX=0;entryY=0.5;entryDx=0;entryDy=0;exitX=1;exitY=0.5;exitDx=0;exitDy=0;" edge="1" parent="WIyWlLk6GJQsqaUBKTNV-1" source="2EqcD_uXoQMtrZzEr0Fk-2" target="2EqcD_uXoQMtrZzEr0Fk-12">
          <mxGeometry width="50" height="50" relative="1" as="geometry">
            <mxPoint x="-509" y="160" as="sourcePoint" />
            <mxPoint x="-429" y="95" as="targetPoint" />
          </mxGeometry>
        </mxCell>
        <mxCell id="2EqcD_uXoQMtrZzEr0Fk-22" value="" style="endArrow=classic;html=1;rounded=0;exitX=1;exitY=0.5;exitDx=0;exitDy=0;" edge="1" parent="WIyWlLk6GJQsqaUBKTNV-1" source="2EqcD_uXoQMtrZzEr0Fk-3">
          <mxGeometry width="50" height="50" relative="1" as="geometry">
            <mxPoint x="-519" y="200" as="sourcePoint" />
            <mxPoint x="-439" y="140" as="targetPoint" />
          </mxGeometry>
        </mxCell>
        <mxCell id="2EqcD_uXoQMtrZzEr0Fk-23" value="" style="endArrow=classic;html=1;rounded=0;entryX=0;entryY=0.5;entryDx=0;entryDy=0;exitX=1;exitY=0.5;exitDx=0;exitDy=0;" edge="1" parent="WIyWlLk6GJQsqaUBKTNV-1" source="2EqcD_uXoQMtrZzEr0Fk-6" target="2EqcD_uXoQMtrZzEr0Fk-15">
          <mxGeometry width="50" height="50" relative="1" as="geometry">
            <mxPoint x="-489" y="180" as="sourcePoint" />
            <mxPoint x="-409" y="115" as="targetPoint" />
          </mxGeometry>
        </mxCell>
        <mxCell id="2EqcD_uXoQMtrZzEr0Fk-24" value="" style="endArrow=classic;html=1;rounded=0;entryX=0;entryY=0.5;entryDx=0;entryDy=0;exitX=1;exitY=0.5;exitDx=0;exitDy=0;" edge="1" parent="WIyWlLk6GJQsqaUBKTNV-1" source="2EqcD_uXoQMtrZzEr0Fk-8" target="2EqcD_uXoQMtrZzEr0Fk-16">
          <mxGeometry width="50" height="50" relative="1" as="geometry">
            <mxPoint x="-509" y="245" as="sourcePoint" />
            <mxPoint x="-429" y="255" as="targetPoint" />
          </mxGeometry>
        </mxCell>
        <mxCell id="2EqcD_uXoQMtrZzEr0Fk-25" value="" style="endArrow=classic;html=1;rounded=0;entryX=0;entryY=0.5;entryDx=0;entryDy=0;exitX=1;exitY=0.5;exitDx=0;exitDy=0;" edge="1" parent="WIyWlLk6GJQsqaUBKTNV-1" source="2EqcD_uXoQMtrZzEr0Fk-18" target="2EqcD_uXoQMtrZzEr0Fk-19">
          <mxGeometry width="50" height="50" relative="1" as="geometry">
            <mxPoint x="-519" y="280" as="sourcePoint" />
            <mxPoint x="-429" y="285" as="targetPoint" />
          </mxGeometry>
        </mxCell>
        <mxCell id="2EqcD_uXoQMtrZzEr0Fk-26" value="" style="endArrow=classic;html=1;rounded=0;" edge="1" parent="WIyWlLk6GJQsqaUBKTNV-1">
          <mxGeometry width="50" height="50" relative="1" as="geometry">
            <mxPoint x="-681" y="316" as="sourcePoint" />
            <mxPoint x="-681" y="86" as="targetPoint" />
          </mxGeometry>
        </mxCell>
        <mxCell id="2EqcD_uXoQMtrZzEr0Fk-27" value="Ordered&lt;br&gt;by&amp;nbsp;&lt;br&gt;priority" style="edgeLabel;html=1;align=center;verticalAlign=middle;resizable=0;points=[];" vertex="1" connectable="0" parent="2EqcD_uXoQMtrZzEr0Fk-26">
          <mxGeometry x="0.2696" y="1" relative="1" as="geometry">
            <mxPoint as="offset" />
          </mxGeometry>
        </mxCell>
        <mxCell id="2EqcD_uXoQMtrZzEr0Fk-28" value="" style="sketch=0;html=1;aspect=fixed;strokeColor=none;shadow=0;align=center;verticalAlign=top;fillColor=#3B8DF1;shape=mxgraph.gcp2.arrow_cycle;flipH=1;" vertex="1" parent="WIyWlLk6GJQsqaUBKTNV-1">
          <mxGeometry x="-230" y="40" width="126.32" height="120" as="geometry" />
        </mxCell>
        <mxCell id="2EqcD_uXoQMtrZzEr0Fk-29" value="Sprint&lt;br&gt;3-4 weeks" style="text;html=1;align=center;verticalAlign=middle;resizable=0;points=[];autosize=1;strokeColor=none;fillColor=none;" vertex="1" parent="WIyWlLk6GJQsqaUBKTNV-1">
          <mxGeometry x="-205" y="85" width="70" height="30" as="geometry" />
        </mxCell>
        <mxCell id="2EqcD_uXoQMtrZzEr0Fk-30" value="" style="sketch=0;html=1;aspect=fixed;strokeColor=none;shadow=0;align=center;verticalAlign=top;fillColor=#3B8DF1;shape=mxgraph.gcp2.arrow_cycle;flipH=1;" vertex="1" parent="WIyWlLk6GJQsqaUBKTNV-1">
          <mxGeometry x="-230.16" y="200" width="126.32" height="120" as="geometry" />
        </mxCell>
        <mxCell id="2EqcD_uXoQMtrZzEr0Fk-31" value="Sprint&lt;br&gt;3-4 weeks" style="text;html=1;align=center;verticalAlign=middle;resizable=0;points=[];autosize=1;strokeColor=none;fillColor=none;" vertex="1" parent="WIyWlLk6GJQsqaUBKTNV-1">
          <mxGeometry x="-207" y="245" width="70" height="30" as="geometry" />
        </mxCell>
        <mxCell id="2EqcD_uXoQMtrZzEr0Fk-32" value="" style="rounded=0;html=1;jettySize=auto;orthogonalLoop=1;fontSize=11;endArrow=block;endFill=0;endSize=8;strokeWidth=1;shadow=0;labelBackgroundColor=none;edgeStyle=orthogonalEdgeStyle;exitX=1;exitY=0.5;exitDx=0;exitDy=0;" edge="1" parent="WIyWlLk6GJQsqaUBKTNV-1" source="2EqcD_uXoQMtrZzEr0Fk-10">
          <mxGeometry relative="1" as="geometry">
            <mxPoint x="110" y="70" as="sourcePoint" />
            <mxPoint x="-230" y="100" as="targetPoint" />
          </mxGeometry>
        </mxCell>
        <mxCell id="2EqcD_uXoQMtrZzEr0Fk-33" value="" style="rounded=0;html=1;jettySize=auto;orthogonalLoop=1;fontSize=11;endArrow=block;endFill=0;endSize=8;strokeWidth=1;shadow=0;labelBackgroundColor=none;edgeStyle=orthogonalEdgeStyle;exitX=1;exitY=0.5;exitDx=0;exitDy=0;" edge="1" parent="WIyWlLk6GJQsqaUBKTNV-1" source="2EqcD_uXoQMtrZzEr0Fk-14">
          <mxGeometry relative="1" as="geometry">
            <mxPoint x="-289" y="110" as="sourcePoint" />
            <mxPoint x="-230" y="260" as="targetPoint" />
          </mxGeometry>
        </mxCell>
        <mxCell id="2EqcD_uXoQMtrZzEr0Fk-35" value="" style="rounded=0;html=1;jettySize=auto;orthogonalLoop=1;fontSize=11;endArrow=block;endFill=0;endSize=8;strokeWidth=1;shadow=0;labelBackgroundColor=none;edgeStyle=orthogonalEdgeStyle;entryX=0;entryY=0.5;entryDx=0;entryDy=0;exitX=0.05;exitY=0.542;exitDx=0;exitDy=0;exitPerimeter=0;" edge="1" parent="WIyWlLk6GJQsqaUBKTNV-1" source="2EqcD_uXoQMtrZzEr0Fk-28" target="WIyWlLk6GJQsqaUBKTNV-7">
          <mxGeometry relative="1" as="geometry">
            <mxPoint x="-90" y="100" as="sourcePoint" />
            <mxPoint x="-220" y="110" as="targetPoint" />
          </mxGeometry>
        </mxCell>
        <mxCell id="2EqcD_uXoQMtrZzEr0Fk-36" value="NB assessment" style="rounded=1;whiteSpace=wrap;html=1;fontSize=12;glass=0;strokeWidth=1;shadow=0;fillColor=#fff2cc;strokeColor=#d6b656;" vertex="1" parent="WIyWlLk6GJQsqaUBKTNV-1">
          <mxGeometry x="90" y="85" width="120" height="40" as="geometry" />
        </mxCell>
        <mxCell id="2EqcD_uXoQMtrZzEr0Fk-37" value="" style="rounded=0;html=1;jettySize=auto;orthogonalLoop=1;fontSize=11;endArrow=block;endFill=0;endSize=8;strokeWidth=1;shadow=0;labelBackgroundColor=none;edgeStyle=orthogonalEdgeStyle;entryX=0;entryY=0.5;entryDx=0;entryDy=0;exitX=0.05;exitY=0.542;exitDx=0;exitDy=0;exitPerimeter=0;" edge="1" parent="WIyWlLk6GJQsqaUBKTNV-1" target="2EqcD_uXoQMtrZzEr0Fk-36">
          <mxGeometry relative="1" as="geometry">
            <mxPoint x="50.00400000000013" y="105.03999999999996" as="sourcePoint" />
            <mxPoint x="-60" y="110" as="targetPoint" />
          </mxGeometry>
        </mxCell>
        <mxCell id="2EqcD_uXoQMtrZzEr0Fk-38" value="Release review" style="rounded=1;whiteSpace=wrap;html=1;fontSize=12;glass=0;strokeWidth=1;shadow=0;fillColor=#fff2cc;strokeColor=#d6b656;" vertex="1" parent="WIyWlLk6GJQsqaUBKTNV-1">
          <mxGeometry x="-70" y="240" width="118" height="39.33" as="geometry" />
        </mxCell>
        <mxCell id="2EqcD_uXoQMtrZzEr0Fk-39" value="" style="rounded=0;html=1;jettySize=auto;orthogonalLoop=1;fontSize=11;endArrow=block;endFill=0;endSize=8;strokeWidth=1;shadow=0;labelBackgroundColor=none;edgeStyle=orthogonalEdgeStyle;entryX=0;entryY=0.5;entryDx=0;entryDy=0;exitX=0.05;exitY=0.542;exitDx=0;exitDy=0;exitPerimeter=0;" edge="1" parent="WIyWlLk6GJQsqaUBKTNV-1" target="2EqcD_uXoQMtrZzEr0Fk-38">
          <mxGeometry relative="1" as="geometry">
            <mxPoint x="-109.99599999999987" y="260.03999999999996" as="sourcePoint" />
            <mxPoint x="-220" y="265" as="targetPoint" />
          </mxGeometry>
        </mxCell>
        <mxCell id="2EqcD_uXoQMtrZzEr0Fk-40" value="Release to utilization" style="rounded=1;whiteSpace=wrap;html=1;fontSize=12;glass=0;strokeWidth=1;shadow=0;fillColor=#d5e8d4;strokeColor=#82b366;" vertex="1" parent="WIyWlLk6GJQsqaUBKTNV-1">
          <mxGeometry x="90" y="240" width="120" height="40" as="geometry" />
        </mxCell>
        <mxCell id="2EqcD_uXoQMtrZzEr0Fk-41" value="" style="rounded=0;html=1;jettySize=auto;orthogonalLoop=1;fontSize=11;endArrow=block;endFill=0;endSize=8;strokeWidth=1;shadow=0;labelBackgroundColor=none;edgeStyle=orthogonalEdgeStyle;entryX=0;entryY=0.5;entryDx=0;entryDy=0;exitX=0.05;exitY=0.542;exitDx=0;exitDy=0;exitPerimeter=0;" edge="1" parent="WIyWlLk6GJQsqaUBKTNV-1" target="2EqcD_uXoQMtrZzEr0Fk-40">
          <mxGeometry relative="1" as="geometry">
            <mxPoint x="50.003999999999905" y="260.03999999999996" as="sourcePoint" />
            <mxPoint x="-60" y="265" as="targetPoint" />
          </mxGeometry>
        </mxCell>
        <mxCell id="2EqcD_uXoQMtrZzEr0Fk-55" value="" style="rounded=0;html=1;jettySize=auto;orthogonalLoop=1;fontSize=11;endArrow=block;endFill=0;endSize=8;strokeWidth=1;shadow=0;labelBackgroundColor=none;edgeStyle=orthogonalEdgeStyle;entryX=0;entryY=0.5;entryDx=0;entryDy=0;" edge="1" parent="WIyWlLk6GJQsqaUBKTNV-1" target="2EqcD_uXoQMtrZzEr0Fk-50">
          <mxGeometry relative="1" as="geometry">
            <mxPoint x="221" y="262" as="sourcePoint" />
            <mxPoint x="91" y="259" as="targetPoint" />
          </mxGeometry>
        </mxCell>
        <mxCell id="2EqcD_uXoQMtrZzEr0Fk-72" style="edgeStyle=orthogonalEdgeStyle;rounded=0;orthogonalLoop=1;jettySize=auto;html=1;exitX=1;exitY=0.5;exitDx=0;exitDy=0;entryX=0;entryY=0.5;entryDx=0;entryDy=0;endArrow=block;endFill=0;" edge="1" parent="WIyWlLk6GJQsqaUBKTNV-1" source="2EqcD_uXoQMtrZzEr0Fk-56" target="2EqcD_uXoQMtrZzEr0Fk-67">
          <mxGeometry relative="1" as="geometry" />
        </mxCell>
        <mxCell id="2EqcD_uXoQMtrZzEr0Fk-56" value="" style="swimlane;horizontal=0;fillColor=#d5e8d4;strokeColor=#82b366;" vertex="1" parent="WIyWlLk6GJQsqaUBKTNV-1">
          <mxGeometry x="392" y="189" width="70" height="145" as="geometry" />
        </mxCell>
        <mxCell id="2EqcD_uXoQMtrZzEr0Fk-59" value="4" style="ellipse;whiteSpace=wrap;html=1;aspect=fixed;strokeWidth=2;fontFamily=Tahoma;spacingBottom=4;spacingRight=2;strokeColor=#d3d3d3;" vertex="1" parent="2EqcD_uXoQMtrZzEr0Fk-56">
          <mxGeometry x="2" y="20" width="20" height="20" as="geometry" />
        </mxCell>
        <mxCell id="2EqcD_uXoQMtrZzEr0Fk-58" value="" style="rounded=0;html=1;jettySize=auto;orthogonalLoop=1;fontSize=11;endArrow=block;endFill=0;endSize=8;strokeWidth=1;shadow=0;labelBackgroundColor=none;edgeStyle=orthogonalEdgeStyle;entryX=0;entryY=0.5;entryDx=0;entryDy=0;" edge="1" parent="WIyWlLk6GJQsqaUBKTNV-1" target="2EqcD_uXoQMtrZzEr0Fk-56">
          <mxGeometry relative="1" as="geometry">
            <mxPoint x="341.5" y="262" as="sourcePoint" />
            <mxPoint x="211.5" y="259" as="targetPoint" />
          </mxGeometry>
        </mxCell>
        <mxCell id="2EqcD_uXoQMtrZzEr0Fk-71" value="" style="edgeStyle=orthogonalEdgeStyle;rounded=0;orthogonalLoop=1;jettySize=auto;html=1;endArrow=block;endFill=0;" edge="1" parent="WIyWlLk6GJQsqaUBKTNV-1" source="2EqcD_uXoQMtrZzEr0Fk-60" target="2EqcD_uXoQMtrZzEr0Fk-61">
          <mxGeometry relative="1" as="geometry" />
        </mxCell>
        <mxCell id="2EqcD_uXoQMtrZzEr0Fk-60" value="Release review" style="rounded=1;whiteSpace=wrap;html=1;fontSize=12;glass=0;strokeWidth=1;shadow=0;fillColor=#fff2cc;strokeColor=#d6b656;" vertex="1" parent="WIyWlLk6GJQsqaUBKTNV-1">
          <mxGeometry x="533" y="241.5" width="118" height="39.33" as="geometry" />
        </mxCell>
        <mxCell id="2EqcD_uXoQMtrZzEr0Fk-61" value="Release to utilization" style="rounded=1;whiteSpace=wrap;html=1;fontSize=12;glass=0;strokeWidth=1;shadow=0;fillColor=#d5e8d4;strokeColor=#82b366;" vertex="1" parent="WIyWlLk6GJQsqaUBKTNV-1">
          <mxGeometry x="691" y="241.5" width="120" height="40" as="geometry" />
        </mxCell>
        <mxCell id="2EqcD_uXoQMtrZzEr0Fk-74" style="edgeStyle=orthogonalEdgeStyle;rounded=0;orthogonalLoop=1;jettySize=auto;html=1;exitX=1;exitY=0.5;exitDx=0;exitDy=0;entryX=0.571;entryY=-0.013;entryDx=0;entryDy=0;entryPerimeter=0;endArrow=block;endFill=0;" edge="1" parent="WIyWlLk6GJQsqaUBKTNV-1" source="2EqcD_uXoQMtrZzEr0Fk-66" target="2EqcD_uXoQMtrZzEr0Fk-60">
          <mxGeometry relative="1" as="geometry" />
        </mxCell>
        <mxCell id="2EqcD_uXoQMtrZzEr0Fk-66" value="Merge to main" style="rounded=1;whiteSpace=wrap;html=1;fontSize=12;glass=0;strokeWidth=1;shadow=0;fillColor=#fff2cc;strokeColor=#d6b656;" vertex="1" parent="WIyWlLk6GJQsqaUBKTNV-1">
          <mxGeometry x="462" y="80.32999999999998" width="118" height="39.33" as="geometry" />
        </mxCell>
        <mxCell id="2EqcD_uXoQMtrZzEr0Fk-67" value="" style="swimlane;horizontal=0;fillColor=#d5e8d4;strokeColor=#82b366;" vertex="1" parent="WIyWlLk6GJQsqaUBKTNV-1">
          <mxGeometry x="503" y="189" width="317" height="145" as="geometry" />
        </mxCell>
        <mxCell id="2EqcD_uXoQMtrZzEr0Fk-69" value="5" style="ellipse;whiteSpace=wrap;html=1;aspect=fixed;strokeWidth=2;fontFamily=Tahoma;spacingBottom=4;spacingRight=2;strokeColor=#d3d3d3;" vertex="1" parent="2EqcD_uXoQMtrZzEr0Fk-67">
          <mxGeometry x="2" y="21" width="20" height="20" as="geometry" />
        </mxCell>
        <mxCell id="2EqcD_uXoQMtrZzEr0Fk-75" value="Feature over change report threshold" style="text;strokeColor=#b85450;fillColor=#f8cecc;align=left;verticalAlign=middle;spacingLeft=4;spacingRight=4;overflow=hidden;points=[[0,0.5],[1,0.5]];portConstraint=eastwest;rotatable=0;" vertex="1" parent="WIyWlLk6GJQsqaUBKTNV-1">
          <mxGeometry x="-679" y="410" width="230" height="30" as="geometry" />
        </mxCell>
        <mxCell id="2EqcD_uXoQMtrZzEr0Fk-76" value="Feature under change report threshold" style="text;strokeColor=#82b366;fillColor=#d5e8d4;align=left;verticalAlign=middle;spacingLeft=4;spacingRight=4;overflow=hidden;points=[[0,0.5],[1,0.5]];portConstraint=eastwest;rotatable=0;" vertex="1" parent="WIyWlLk6GJQsqaUBKTNV-1">
          <mxGeometry x="-679" y="450" width="230" height="30" as="geometry" />
        </mxCell>
        <mxCell id="2EqcD_uXoQMtrZzEr0Fk-78" value="Symbols" style="swimlane;" vertex="1" parent="WIyWlLk6GJQsqaUBKTNV-1">
          <mxGeometry x="-689" y="370" width="250" height="160" as="geometry" />
        </mxCell>
        <mxCell id="2EqcD_uXoQMtrZzEr0Fk-83" value="Sprint sequence number" style="text;align=center;verticalAlign=middle;spacingLeft=4;spacingRight=4;overflow=hidden;points=[[0,0.5],[1,0.5]];portConstraint=eastwest;rotatable=0;" vertex="1" parent="2EqcD_uXoQMtrZzEr0Fk-78">
          <mxGeometry x="10" y="120" width="230" height="30" as="geometry" />
        </mxCell>
        <mxCell id="2EqcD_uXoQMtrZzEr0Fk-84" value="1" style="ellipse;whiteSpace=wrap;html=1;aspect=fixed;strokeWidth=2;fontFamily=Tahoma;spacingBottom=4;spacingRight=2;strokeColor=#d3d3d3;" vertex="1" parent="2EqcD_uXoQMtrZzEr0Fk-78">
          <mxGeometry x="19" y="125" width="20" height="20" as="geometry" />
        </mxCell>
        <mxCell id="2EqcD_uXoQMtrZzEr0Fk-80" style="edgeStyle=orthogonalEdgeStyle;rounded=0;orthogonalLoop=1;jettySize=auto;html=1;exitX=1;exitY=0.5;exitDx=0;exitDy=0;entryX=0;entryY=0.5;entryDx=0;entryDy=0;endArrow=block;endFill=0;" edge="1" parent="WIyWlLk6GJQsqaUBKTNV-1" source="2EqcD_uXoQMtrZzEr0Fk-79" target="2EqcD_uXoQMtrZzEr0Fk-66">
          <mxGeometry relative="1" as="geometry" />
        </mxCell>
        <mxCell id="2EqcD_uXoQMtrZzEr0Fk-79" value="Change accepted" style="rounded=1;whiteSpace=wrap;html=1;fontSize=12;glass=0;strokeWidth=1;shadow=0;fillColor=#d5e8d4;strokeColor=#82b366;" vertex="1" parent="WIyWlLk6GJQsqaUBKTNV-1">
          <mxGeometry x="280" y="80.32999999999998" width="118" height="39.33" as="geometry" />
        </mxCell>
      </root>
    </mxGraphModel>
  </diagram>
</mxfile>
